<?xml version="1.0" encoding="UTF-8" standalone="no"?><svg xmlns="http://www.w3.org/2000/svg" xmlns:xlink="http://www.w3.org/1999/xlink" contentScriptType="application/ecmascript" contentStyleType="text/css" height="560px" preserveAspectRatio="none" style="width:911px;height:560px;" version="1.1" viewBox="0 0 911 560"
    width="911px" zoomAndPan="magnify"><defs><filter height="300%" id="f16" width="300%" x="-1" y="-1"><feGaussianBlur result="blurOut" stdDeviation="2.0"/><feColorMatrix in="blurOut" result="blurOut2" type="matrix" values="0 0 0 0 0 0 0 0 0 0 0 0 0 0 0 0 0 0 .4 0"/><feOffset dx="4.0" dy="4.0" in="blurOut2" result="blurOut3"/><feBlend in="SourceGraphic" in2="blurOut3" mode="normal"/></filter></defs><g><text fill="#000000" font-family="sans-serif" font-size="18" lengthAdjust="spacingAndGlyphs" textLength="169" x="379.5" y="16.708">"Shop - High level"</text><!--cluster Shop \nCustomer-Context--><rect fill="#FFFFFF" filter="url(#f16)" height="358" style="stroke: #000000; stroke-width: 2.0;" width="172" x="118" y="44.9531"/><text fill="#000000" font-family="sans-serif" font-size="14" font-weight="bold" lengthAdjust="spacingAndGlyphs" textLength="40" x="181.5" y="59.9482">Shop</text><text fill="#000000" font-family="sans-serif" font-size="14" font-weight="bold" lengthAdjust="spacingAndGlyphs" textLength="145" x="131.5" y="76.2451">Customer-Context</text><!--cluster Shop \nAdmin-Context--><rect fill="#FFFFFF" filter="url(#f16)" height="179" style="stroke: #000000; stroke-width: 2.0;" width="210" x="594" y="169.9531"/><text fill="#000000" font-family="sans-serif" font-size="14" font-weight="bold" lengthAdjust="spacingAndGlyphs" textLength="40" x="676.5" y="184.9482">Shop</text><text fill="#000000" font-family="sans-serif" font-size="14" font-weight="bold" lengthAdjust="spacingAndGlyphs" textLength="117" x="640.5" y="201.2451">Admin-Context</text><ellipse cx="203.8345" cy="175.9768" fill="#FEFECE" filter="url(#f16)" rx="26.3345" ry="14.5236" style="stroke: #A80036; stroke-width: 1.5;"/><text fill="#000000" font-family="sans-serif" font-size="14" lengthAdjust="spacingAndGlyphs" textLength="33" x="187.3345" y="180.6252">login</text><ellipse cx="204.1127" cy="111.9768" fill="#FEFECE" filter="url(#f16)" rx="34.1127" ry="14.5236" style="stroke: #A80036; stroke-width: 1.5;"/><text fill="#000000" font-family="sans-serif" font-size="14" lengthAdjust="spacingAndGlyphs" textLength="44" x="182.1127" y="116.6252">logout</text><ellipse cx="203.9767" cy="239.9768" fill="#FEFECE" filter="url(#f16)" rx="40.4767" ry="14.5236" style="stroke: #A80036; stroke-width: 1.5;"/><text fill="#000000" font-family="sans-serif" font-size="14" lengthAdjust="spacingAndGlyphs" textLength="53" x="177.4767" y="244.6252">register</text><ellipse cx="203.9543" cy="369.744" fill="#FEFECE" filter="url(#f16)" rx="69.4543" ry="16.2909" style="stroke: #A80036; stroke-width: 1.5;"/><text fill="#000000" font-family="sans-serif" font-size="14" lengthAdjust="spacingAndGlyphs" textLength="105" x="151.4543" y="374.3924">search product</text><ellipse cx="204.1565" cy="304.0844" fill="#FEFECE" filter="url(#f16)" rx="61.1565" ry="14.6313" style="stroke: #A80036; stroke-width: 1.5;"/><text fill="#000000" font-family="sans-serif" font-size="14" lengthAdjust="spacingAndGlyphs" textLength="83" x="162.6565" y="308.7329">buy product</text><ellipse cx="698.8518" cy="313.0235" fill="#FEFECE" filter="url(#f16)" rx="88.3518" ry="20.0704" style="stroke: #A80036; stroke-width: 1.5;"/><text fill="#000000" font-family="sans-serif" font-size="14" lengthAdjust="spacingAndGlyphs" textLength="150" x="623.8518" y="317.6719">product management</text><ellipse cx="698.9465" cy="240.0424" fill="#FEFECE" filter="url(#f16)" rx="78.4465" ry="18.0893" style="stroke: #A80036; stroke-width: 1.5;"/><text fill="#000000" font-family="sans-serif" font-size="14" lengthAdjust="spacingAndGlyphs" textLength="127" x="635.4465" y="244.6909">user management</text><!--entity customer--><ellipse cx="40" cy="216.2432" fill="#FEFECE" filter="url(#f16)" rx="8" ry="8" style="stroke: #A80036; stroke-width: 2.0;"/><path d="M40,224.2432 L40,251.2432 M27,232.2432 L53,232.2432 M40,251.2432 L27,266.2432 M40,251.2432 L53,266.2432 " fill="#FEFECE" filter="url(#f16)" style="stroke: #A80036; stroke-width: 2.0;"/><text fill="#000000" font-family="sans-serif" font-size="14" lengthAdjust="spacingAndGlyphs" textLength="68" x="6" y="286.2383">Customer</text><text fill="#000000" font-family="sans-serif" font-size="14" font-style="italic" lengthAdjust="spacingAndGlyphs" textLength="62" x="9" y="203.2559">«human»</text><!--entity admin--><ellipse cx="879" cy="253.2432" fill="#FEFECE" filter="url(#f16)" rx="8" ry="8" style="stroke: #A80036; stroke-width: 2.0;"/><path d="M879,261.2432 L879,288.2432 M866,269.2432 L892,269.2432 M879,288.2432 L866,303.2432 M879,288.2432 L892,303.2432 " fill="#FEFECE" filter="url(#f16)" style="stroke: #A80036; stroke-width: 2.0;"/><text fill="#000000" font-family="sans-serif" font-size="14" lengthAdjust="spacingAndGlyphs" textLength="43" x="857.5" y="323.2383">Admin</text><text fill="#000000" font-family="sans-serif" font-size="14" font-style="italic" lengthAdjust="spacingAndGlyphs" textLength="62" x="848" y="240.2559">«human»</text><!--entity ics--><ellipse cx="442" cy="489.2432" fill="#FEFECE" filter="url(#f16)" rx="8" ry="8" style="stroke: #A80036; stroke-width: 2.0;"/><path d="M442,497.2432 L442,524.2432 M429,505.2432 L455,505.2432 M442,524.2432 L429,539.2432 M442,524.2432 L455,539.2432 " fill="#FEFECE" filter="url(#f16)" style="stroke: #A80036; stroke-width: 2.0;"/><text fill="#000000" font-family="sans-serif" font-size="14" lengthAdjust="spacingAndGlyphs" textLength="172" x="356" y="559.2383">Inventory Control System</text><text fill="#000000" font-family="sans-serif" font-size="14" font-style="italic" lengthAdjust="spacingAndGlyphs" textLength="61" x="411.5" y="476.2559">«system»</text><!--entity cs--><ellipse cx="442" cy="219.2432" fill="#FEFECE" filter="url(#f16)" rx="8" ry="8" style="stroke: #A80036; stroke-width: 2.0;"/><path d="M442,227.2432 L442,254.2432 M429,235.2432 L455,235.2432 M442,254.2432 L429,269.2432 M442,254.2432 L455,269.2432 " fill="#FEFECE" filter="url(#f16)" style="stroke: #A80036; stroke-width: 2.0;"/><text fill="#000000" font-family="sans-serif" font-size="14" lengthAdjust="spacingAndGlyphs" textLength="163" x="360.5" y="289.2383">Communication System</text><text fill="#000000" font-family="sans-serif" font-size="14" font-style="italic" lengthAdjust="spacingAndGlyphs" textLength="61" x="411.5" y="206.2559">«system»</text><!--entity ams--><ellipse cx="442" cy="84.2432" fill="#FEFECE" filter="url(#f16)" rx="8" ry="8" style="stroke: #A80036; stroke-width: 2.0;"/><path d="M442,92.2432 L442,119.2432 M429,100.2432 L455,100.2432 M442,119.2432 L429,134.2432 M442,119.2432 L455,134.2432 " fill="#FEFECE" filter="url(#f16)" style="stroke: #A80036; stroke-width: 2.0;"/><text fill="#000000" font-family="sans-serif" font-size="14" lengthAdjust="spacingAndGlyphs" textLength="216" x="334" y="154.2383">Account Mangagement System</text><text fill="#000000" font-family="sans-serif" font-size="14" font-style="italic" lengthAdjust="spacingAndGlyphs" textLength="61" x="411.5" y="71.2559">«system»</text><!--entity psp--><ellipse cx="442" cy="354.2432" fill="#FEFECE" filter="url(#f16)" rx="8" ry="8" style="stroke: #A80036; stroke-width: 2.0;"/><path d="M442,362.2432 L442,389.2432 M429,370.2432 L455,370.2432 M442,389.2432 L429,404.2432 M442,389.2432 L455,404.2432 " fill="#FEFECE" filter="url(#f16)" style="stroke: #A80036; stroke-width: 2.0;"/><text fill="#000000" font-family="sans-serif" font-size="14" lengthAdjust="spacingAndGlyphs" textLength="174" x="355" y="424.2383">Payment Service Provider</text><text fill="#000000" font-family="sans-serif" font-size="14" font-style="italic" lengthAdjust="spacingAndGlyphs" textLength="61" x="411.5" y="341.2559">«system»</text><path d="M74.1066,224.4221 C85.4082,219.2971 98.1777,213.6971 110,208.9531 C131.945,200.1471 157.261,191.2441 175.933,184.9081 " fill="none" style="stroke: #A80036; stroke-width: 1.0;"/><polygon fill="#A80036" points="181.015,183.1911,171.2082,182.2823,176.2781,184.7915,173.7688,189.8614,181.015,183.1911" style="stroke: #A80036; stroke-width: 1.0;"/><path d="M69.1207,189.7261 C80.1363,173.6361 93.9983,156.9121 110,144.9531 C126.934,132.2971 149.151,124.1751 167.624,119.1561 " fill="none" style="stroke: #A80036; stroke-width: 1.0;"/><polygon fill="#A80036" points="172.727,117.8211,163.0076,116.2297,167.8899,119.0868,165.0327,123.9691,172.727,117.8211" style="stroke: #A80036; stroke-width: 1.0;"/><path d="M74.174,239.9531 C98.3866,239.9531 131.482,239.9531 158.065,239.9531 " fill="none" style="stroke: #A80036; stroke-width: 1.0;"/><polygon fill="#A80036" points="163.29,239.9531,154.29,235.9531,158.29,239.9531,154.29,243.9531,163.29,239.9531" style="stroke: #A80036; stroke-width: 1.0;"/><path d="M68.7584,290.1281 C79.8254,306.5321 93.812,323.6711 110,335.9531 C121.71,344.8371 135.971,351.5791 149.774,356.6201 " fill="none" style="stroke: #A80036; stroke-width: 1.0;"/><polygon fill="#A80036" points="154.833,358.4001,147.6712,351.6394,150.1165,356.7404,145.0155,359.1857,154.833,358.4001" style="stroke: #A80036; stroke-width: 1.0;"/><path d="M74.0381,256.1151 C85.3347,261.4161 98.1186,267.1691 110,271.9531 C126.794,278.7161 145.631,285.3661 161.937,290.8371 " fill="none" style="stroke: #A80036; stroke-width: 1.0;"/><polygon fill="#A80036" points="166.911,292.4961,159.6384,285.8547,162.1677,290.9146,157.1079,293.4439,166.911,292.4961" style="stroke: #A80036; stroke-width: 1.0;"/><path d="M227.629,169.4331 C252.433,162.2861 294.03,150.3001 333.943,138.8001 " fill="none" style="stroke: #A80036; stroke-width: 1.0;"/><path d="M238.063,111.3931 C263.181,110.9671 299.221,110.3561 333.979,109.7671 " fill="none" style="stroke: #A80036; stroke-width: 1.0;"/><path d="M238.221,231.9781 C256.607,226.7331 279.427,218.8111 298,207.9531 C316.481,197.1491 316.911,188.8471 334,175.9531 C341.994,169.9211 350.527,163.8851 359.154,158.0371 " fill="none" style="stroke: #A80036; stroke-width: 1.0;"/><path d="M244.501,240.4551 C275.993,240.8551 321.138,241.4291 360.215,241.9261 " fill="none" style="stroke: #A80036; stroke-width: 1.0;"/><path d="M245.57,293.4671 C277.067,285.3251 321.743,273.7781 360.431,263.7781 " fill="none" style="stroke: #A80036; stroke-width: 1.0;"/><path d="M253.65,312.2841 C269.544,317.1471 286.139,324.8291 298,336.9531 C333.677,373.4231 302.512,405.8111 334,445.9531 C340.29,453.9721 347.826,461.2881 355.946,467.8928 " fill="none" style="stroke: #A80036; stroke-width: 1.0;"/><path d="M241.1,315.2731 C271.315,324.7471 315.666,338.6531 354.921,350.9621 " fill="none" style="stroke: #A80036; stroke-width: 1.0;"/><path d="M230.256,385.2571 C260.697,403.7021 313.383,435.6261 358.459,462.9391 " fill="none" style="stroke: #A80036; stroke-width: 1.0;"/><path d="M770.503,298.6941 C797.338,293.2671 826.521,287.3651 847.699,283.0811 " fill="none" style="stroke: #A80036; stroke-width: 1.0;"/><polygon fill="#A80036" points="765.522,299.7011,775.1365,301.8369,770.4227,298.7096,773.55,293.9957,765.522,299.7011" style="stroke: #A80036; stroke-width: 1.0;"/><path d="M762.767,253.0001 C791.688,259.0121 824.666,265.8671 847.912,270.6991 " fill="none" style="stroke: #A80036; stroke-width: 1.0;"/><polygon fill="#A80036" points="757.791,251.9661,765.7892,257.7133,762.6865,252.9832,767.4165,249.8805,757.791,251.9661" style="stroke: #A80036; stroke-width: 1.0;"/><path d="M539.768,158.0451 C584.572,181.2381 634.76,207.2171 666.361,223.5751 " fill="none" style="stroke: #A80036; stroke-width: 1.0;"/><path d="M526.325,462.7681 C534.456,457.2811 542.473,451.6251 550,445.9531 C598.833,409.1561 650.89,359.6631 678.368,332.6201 " fill="none" style="stroke: #A80036; stroke-width: 1.0;"/><!--
PlantUML version 2017.11(Wed Apr 19 18:18:59 CEST 2017)
(GPL source distribution)
Java Runtime: Java(TM) SE Runtime Environment
JVM: Java HotSpot(TM) 64-Bit Server VM
Java Version: 1.8.0_131-b11
Operating System: Linux
OS Version: 4.4.0-75-generic
Default Encoding: UTF-8
Language: de
Country: DE
--></g></svg>