<?xml version="1.0" encoding="UTF-8" standalone="no"?><svg xmlns="http://www.w3.org/2000/svg" xmlns:xlink="http://www.w3.org/1999/xlink" contentScriptType="application/ecmascript" contentStyleType="text/css" height="619px" preserveAspectRatio="none" style="width:1395px;height:619px;" version="1.1" viewBox="0 0 1395 619"
    width="1395px" zoomAndPan="magnify"><defs><filter height="300%" id="f16" width="300%" x="-1" y="-1"><feGaussianBlur result="blurOut" stdDeviation="2.0"/><feColorMatrix in="blurOut" result="blurOut2" type="matrix" values="0 0 0 0 0 0 0 0 0 0 0 0 0 0 0 0 0 0 .4 0"/><feOffset dx="4.0" dy="4.0" in="blurOut2" result="blurOut3"/><feBlend in="SourceGraphic" in2="blurOut3" mode="normal"/></filter></defs><g><text fill="#000000" font-family="sans-serif" font-size="18" lengthAdjust="spacingAndGlyphs" textLength="222" x="595" y="16.708">"Shop - Sub level (Auth)"</text><!--cluster Shop \n Customer-Context--><rect fill="#FFFFFF" filter="url(#f16)" height="323" style="stroke: #000000; stroke-width: 2.0;" width="972" x="122" y="44.6371"/><text fill="#000000" font-family="sans-serif" font-size="14" font-weight="bold" lengthAdjust="spacingAndGlyphs" textLength="40" x="585.5" y="59.6322">Shop</text><text fill="#000000" font-family="sans-serif" font-size="14" font-weight="bold" lengthAdjust="spacingAndGlyphs" textLength="145" x="538" y="75.9291">Customer-Context</text><ellipse cx="178.8345" cy="177.6608" fill="#FEFECE" filter="url(#f16)" rx="26.3345" ry="14.5236" style="stroke: #A80036; stroke-width: 1.5;"/><text fill="#000000" font-family="sans-serif" font-size="14" lengthAdjust="spacingAndGlyphs" textLength="33" x="162.3345" y="182.3092">login</text><ellipse cx="179.1127" cy="241.6608" fill="#FEFECE" filter="url(#f16)" rx="34.1127" ry="14.5236" style="stroke: #A80036; stroke-width: 1.5;"/><text fill="#000000" font-family="sans-serif" font-size="14" lengthAdjust="spacingAndGlyphs" textLength="44" x="157.1127" y="246.3092">logout</text><ellipse cx="178.9767" cy="305.6608" fill="#FEFECE" filter="url(#f16)" rx="40.4767" ry="14.5236" style="stroke: #A80036; stroke-width: 1.5;"/><text fill="#000000" font-family="sans-serif" font-size="14" lengthAdjust="spacingAndGlyphs" textLength="53" x="152.4767" y="310.3092">register</text><ellipse cx="420.2401" cy="177.6608" fill="#FEFECE" filter="url(#f16)" rx="56.7401" ry="14.5236" style="stroke: #A80036; stroke-width: 1.5;"/><text fill="#000000" font-family="sans-serif" font-size="14" lengthAdjust="spacingAndGlyphs" textLength="76" x="382.2401" y="182.3092">view profile</text><ellipse cx="688.7758" cy="177.6923" fill="#FEFECE" filter="url(#f16)" rx="68.2758" ry="16.0552" style="stroke: #A80036; stroke-width: 1.5;"/><text fill="#000000" font-family="sans-serif" font-size="14" lengthAdjust="spacingAndGlyphs" textLength="102" x="637.7758" y="182.3407">manage profile</text><ellipse cx="975.2036" cy="111.7778" fill="#FEFECE" filter="url(#f16)" rx="63.7036" ry="15.1407" style="stroke: #A80036; stroke-width: 1.5;"/><text fill="#000000" font-family="sans-serif" font-size="14" lengthAdjust="spacingAndGlyphs" textLength="90" x="930.2036" y="116.4263">delete profile</text><ellipse cx="975.0794" cy="177.653" fill="#FEFECE" filter="url(#f16)" rx="65.5794" ry="15.5159" style="stroke: #A80036; stroke-width: 1.5;"/><text fill="#000000" font-family="sans-serif" font-size="14" lengthAdjust="spacingAndGlyphs" textLength="95" x="927.5794" y="182.3014">update profile</text><ellipse cx="975.1163" cy="330.8604" fill="#FEFECE" filter="url(#f16)" rx="94.1163" ry="21.2233" style="stroke: #A80036; stroke-width: 1.5;"/><text fill="#000000" font-family="sans-serif" font-size="14" lengthAdjust="spacingAndGlyphs" textLength="163" x="893.6163" y="335.5088">unsubscribe newsletter</text><ellipse cx="975.2042" cy="251.578" fill="#FEFECE" filter="url(#f16)" rx="102.7042" ry="22.9408" style="stroke: #A80036; stroke-width: 1.5;"/><text fill="#000000" font-family="sans-serif" font-size="14" lengthAdjust="spacingAndGlyphs" textLength="182" x="884.2042" y="256.2264">add new payment-method</text><ellipse cx="420.1635" cy="331.7698" fill="#FEFECE" filter="url(#f16)" rx="86.1635" ry="19.6327" style="stroke: #A80036; stroke-width: 1.5;"/><text fill="#000000" font-family="sans-serif" font-size="14" lengthAdjust="spacingAndGlyphs" textLength="145" x="347.6635" y="336.4183">subscribe newsletter</text><ellipse cx="420.0752" cy="261.8522" fill="#FEFECE" filter="url(#f16)" rx="64.0752" ry="15.215" style="stroke: #A80036; stroke-width: 1.5;"/><text fill="#000000" font-family="sans-serif" font-size="14" lengthAdjust="spacingAndGlyphs" textLength="91" x="374.5752" y="266.5006">double opt in</text><!--entity customer--><ellipse cx="40" cy="217.9272" fill="#FEFECE" filter="url(#f16)" rx="8" ry="8" style="stroke: #A80036; stroke-width: 2.0;"/><path d="M40,225.9272 L40,252.9272 M27,233.9272 L53,233.9272 M40,252.9272 L27,267.9272 M40,252.9272 L53,267.9272 " fill="#FEFECE" filter="url(#f16)" style="stroke: #A80036; stroke-width: 2.0;"/><text fill="#000000" font-family="sans-serif" font-size="14" lengthAdjust="spacingAndGlyphs" textLength="68" x="6" y="287.9223">Customer</text><text fill="#000000" font-family="sans-serif" font-size="14" font-style="italic" lengthAdjust="spacingAndGlyphs" textLength="62" x="9" y="204.9399">«human»</text><!--entity ams--><ellipse cx="1286" cy="120.9272" fill="#FEFECE" filter="url(#f16)" rx="8" ry="8" style="stroke: #A80036; stroke-width: 2.0;"/><path d="M1286,128.9272 L1286,155.9272 M1273,136.9272 L1299,136.9272 M1286,155.9272 L1273,170.9272 M1286,155.9272 L1299,170.9272 " fill="#FEFECE" filter="url(#f16)" style="stroke: #A80036; stroke-width: 2.0;"/><text fill="#000000" font-family="sans-serif" font-size="14" lengthAdjust="spacingAndGlyphs" textLength="216" x="1178" y="190.9223">Account Mangagement System</text><text fill="#000000" font-family="sans-serif" font-size="14" font-style="italic" lengthAdjust="spacingAndGlyphs" textLength="61" x="1255.5" y="107.9399">«system»</text><!--entity cs--><ellipse cx="1286" cy="487.9272" fill="#FEFECE" filter="url(#f16)" rx="8" ry="8" style="stroke: #A80036; stroke-width: 2.0;"/><path d="M1286,495.9272 L1286,522.9272 M1273,503.9272 L1299,503.9272 M1286,522.9272 L1273,537.9272 M1286,522.9272 L1299,537.9272 " fill="#FEFECE" filter="url(#f16)" style="stroke: #A80036; stroke-width: 2.0;"/><text fill="#000000" font-family="sans-serif" font-size="14" lengthAdjust="spacingAndGlyphs" textLength="163" x="1204.5" y="557.9223">Communication System</text><text fill="#000000" font-family="sans-serif" font-size="14" font-style="italic" lengthAdjust="spacingAndGlyphs" textLength="61" x="1255.5" y="474.9399">«system»</text><!--entity psp--><ellipse cx="1286" cy="352.9272" fill="#FEFECE" filter="url(#f16)" rx="8" ry="8" style="stroke: #A80036; stroke-width: 2.0;"/><path d="M1286,360.9272 L1286,387.9272 M1273,368.9272 L1299,368.9272 M1286,387.9272 L1273,402.9272 M1286,387.9272 L1299,402.9272 " fill="#FEFECE" filter="url(#f16)" style="stroke: #A80036; stroke-width: 2.0;"/><text fill="#000000" font-family="sans-serif" font-size="14" lengthAdjust="spacingAndGlyphs" textLength="174" x="1199" y="422.9223">Payment Service Provider</text><text fill="#000000" font-family="sans-serif" font-size="14" font-style="italic" lengthAdjust="spacingAndGlyphs" textLength="61" x="1255.5" y="339.9399">«system»</text><path d="M74.1639,226.1441 C98.7092,214.6781 131.59,199.3171 153.719,188.9801 " fill="none" style="stroke: #A80036; stroke-width: 1.0;"/><polygon fill="#A80036" points="158.271,186.8531,148.4239,187.04,153.7413,188.9701,151.8111,194.2875,158.271,186.8531" style="stroke: #A80036; stroke-width: 1.0;"/><path d="M74.1639,241.6371 C93.8749,241.6371 118.961,241.6371 139.538,241.6371 " fill="none" style="stroke: #A80036; stroke-width: 1.0;"/><polygon fill="#A80036" points="144.667,241.6371,135.667,237.6371,139.667,241.6371,135.667,245.6371,144.667,241.6371" style="stroke: #A80036; stroke-width: 1.0;"/><path d="M74.1639,257.1301 C97.0827,267.8361 127.269,281.9381 149.184,292.1751 " fill="none" style="stroke: #A80036; stroke-width: 1.0;"/><polygon fill="#A80036" points="153.729,294.2991,147.2691,286.8647,149.1993,292.1821,143.8819,294.1123,153.729,294.2991" style="stroke: #A80036; stroke-width: 1.0;"/><path d="M205.577,177.6371 C243.028,177.6371 313.727,177.6371 363.464,177.6371 " fill="none" style="stroke: #A80036; stroke-width: 1.0;"/><text fill="#000000" font-family="sans-serif" font-size="13" lengthAdjust="spacingAndGlyphs" textLength="51" x="251" y="172.704">extends</text><path d="M476.647,177.6371 C518.37,177.6371 575.688,177.6371 620.109,177.6371 " fill="none" style="stroke: #A80036; stroke-width: 1.0;"/><text fill="#000000" font-family="sans-serif" font-size="13" lengthAdjust="spacingAndGlyphs" textLength="51" x="537" y="172.704">extends</text><path d="M738.177,166.4411 C791.825,153.9731 877.814,133.9901 929.798,121.9091 " fill="none" style="stroke: #A80036; stroke-width: 1.0;"/><text fill="#000000" font-family="sans-serif" font-size="13" lengthAdjust="spacingAndGlyphs" textLength="51" x="789" y="138.704">extends</text><path d="M757.664,177.6371 C803.602,177.6371 863.996,177.6371 909.295,177.6371 " fill="none" style="stroke: #A80036; stroke-width: 1.0;"/><text fill="#000000" font-family="sans-serif" font-size="13" lengthAdjust="spacingAndGlyphs" textLength="51" x="789" y="172.704">extends</text><path d="M710.641,192.9531 C743.454,216.7661 810.146,263.0041 872,292.6371 C888.105,300.3521 906.219,307.5501 922.664,313.5601 " fill="none" style="stroke: #A80036; stroke-width: 1.0;"/><text fill="#000000" font-family="sans-serif" font-size="13" lengthAdjust="spacingAndGlyphs" textLength="51" x="789" y="240.704">extends</text><path d="M734.867,189.6091 C751.544,194.0411 770.63,199.0921 788,203.6371 C827.361,213.9371 871.449,225.3211 906.819,234.4171 " fill="none" style="stroke: #A80036; stroke-width: 1.0;"/><text fill="#000000" font-family="sans-serif" font-size="13" lengthAdjust="spacingAndGlyphs" textLength="44" x="792.5" y="198.704">extend</text><path d="M213.679,313.2701 C225.151,315.6301 238.086,318.0291 250,319.6371 C277.692,323.3741 308.105,325.9901 335.405,327.8021 " fill="none" style="stroke: #A80036; stroke-width: 1.0;"/><text fill="#000000" font-family="sans-serif" font-size="13" lengthAdjust="spacingAndGlyphs" textLength="51" x="251" y="314.704">extends</text><path d="M215.265,299.1451 C256.167,291.6141 323.857,279.1531 369.891,270.6781 " fill="none" style="stroke: #A80036; stroke-width: 1.0;"/><text fill="#000000" font-family="sans-serif" font-size="13" lengthAdjust="spacingAndGlyphs" textLength="45" x="254" y="278.704">include</text><path d="M457.247,273.4551 C472.752,279.1831 490.757,286.7541 506,295.6371 C520.753,304.2341 521.529,310.5731 536,319.6371 C571.043,341.5871 580.943,346.0591 620,359.6371 C825.128,430.9461 1077.6,478.0876 1204.33,499.0957 " fill="none" style="stroke: #A80036; stroke-width: 1.0;"/><path d="M427.263,350.9461 C440.489,388.1131 475.16,468.8181 536,501.637 C753.323,618.8678 1060.31,567.6998 1204.4,533.4448 " fill="none" style="stroke: #A80036; stroke-width: 1.0;"/><path d="M1008.78,349.8361 C1054.91,376.8571 1140.47,426.9741 1204.19,464.3001 " fill="none" style="stroke: #A80036; stroke-width: 1.0;"/><path d="M458.201,273.4611 C583.446,312.3631 988.278,430.4991 1102,369.6371 C1107.65,366.6121 1106.18,362.7861 1110,357.6371 C1152.61,300.1571 1205.13,237.1711 1241.46,194.7121 " fill="none" style="stroke: #A80036; stroke-width: 1.0;"/><path d="M709.515,162.2401 C741.313,138.3371 807.277,93.5961 872,79.6371 C971.925,58.0861 1001.263,62.2781 1102,79.6371 C1127.09,83.9601 1153.29,91.3861 1177.78,99.7101 " fill="none" style="stroke: #A80036; stroke-width: 1.0;"/><path d="M1033.04,117.7281 C1073.58,122.0581 1129.26,128.0041 1177.97,133.2061 " fill="none" style="stroke: #A80036; stroke-width: 1.0;"/><path d="M1034.85,171.3521 C1075.21,167.0421 1129.93,161.1981 1177.9,156.0751 " fill="none" style="stroke: #A80036; stroke-width: 1.0;"/><path d="M1036.06,270.2471 C1057.09,277.1321 1080.75,285.3021 1102,293.6371 C1133.99,306.1841 1168.45,321.3631 1198.75,335.2921 " fill="none" style="stroke: #A80036; stroke-width: 1.0;"/><text fill="#000000" font-family="sans-serif" font-size="13" lengthAdjust="spacingAndGlyphs" textLength="34" x="1111.5" y="291.704">verify</text><!--
PlantUML version 2017.11(Wed Apr 19 18:18:59 CEST 2017)
(GPL source distribution)
Java Runtime: Java(TM) SE Runtime Environment
JVM: Java HotSpot(TM) 64-Bit Server VM
Java Version: 1.8.0_131-b11
Operating System: Linux
OS Version: 4.4.0-75-generic
Default Encoding: UTF-8
Language: de
Country: DE
--></g></svg>