<?xml version="1.0" encoding="UTF-8" standalone="no"?><svg xmlns="http://www.w3.org/2000/svg" xmlns:xlink="http://www.w3.org/1999/xlink" contentScriptType="application/ecmascript" contentStyleType="text/css" height="512px" preserveAspectRatio="none" style="width:1410px;height:512px;" version="1.1" viewBox="0 0 1410 512"
    width="1410px" zoomAndPan="magnify"><defs><filter height="300%" id="f16" width="300%" x="-1" y="-1"><feGaussianBlur result="blurOut" stdDeviation="2.0"/><feColorMatrix in="blurOut" result="blurOut2" type="matrix" values="0 0 0 0 0 0 0 0 0 0 0 0 0 0 0 0 0 0 .4 0"/><feOffset dx="4.0" dy="4.0" in="blurOut2" result="blurOut3"/><feBlend in="SourceGraphic" in2="blurOut3" mode="normal"/></filter></defs><g><text fill="#000000" font-family="sans-serif" font-size="18" lengthAdjust="spacingAndGlyphs" textLength="363" x="532.5" y="16.708">"Shop - Sub level (Business Transaction)"</text><!--cluster Shop \n Customer-Context--><rect fill="#FFFFFF" filter="url(#f16)" height="353" style="stroke: #000000; stroke-width: 2.0;" width="1076" x="122" y="44.9531"/><text fill="#000000" font-family="sans-serif" font-size="14" font-weight="bold" lengthAdjust="spacingAndGlyphs" textLength="40" x="637.5" y="59.9482">Shop</text><text fill="#000000" font-family="sans-serif" font-size="14" font-weight="bold" lengthAdjust="spacingAndGlyphs" textLength="145" x="590" y="76.2451">Customer-Context</text><ellipse cx="207.9543" cy="225.744" fill="#FEFECE" filter="url(#f16)" rx="69.4543" ry="16.2909" style="stroke: #A80036; stroke-width: 1.5;"/><text fill="#000000" font-family="sans-serif" font-size="14" lengthAdjust="spacingAndGlyphs" textLength="105" x="155.4543" y="230.3924">search product</text><ellipse cx="448.966" cy="201.9463" fill="#FEFECE" filter="url(#f16)" rx="62.966" ry="14.9932" style="stroke: #A80036; stroke-width: 1.5;"/><text fill="#000000" font-family="sans-serif" font-size="14" lengthAdjust="spacingAndGlyphs" textLength="88" x="404.966" y="206.5948">view product</text><ellipse cx="705.9486" cy="264.7428" fill="#FEFECE" filter="url(#f16)" rx="64.4486" ry="15.2897" style="stroke: #A80036; stroke-width: 1.5;"/><text fill="#000000" font-family="sans-serif" font-size="14" lengthAdjust="spacingAndGlyphs" textLength="92" x="659.9486" y="269.3913">put to basket</text><ellipse cx="705.85" cy="114.8231" fill="#FEFECE" filter="url(#f16)" rx="69.85" ry="16.37" style="stroke: #A80036; stroke-width: 1.5;"/><text fill="#000000" font-family="sans-serif" font-size="14" lengthAdjust="spacingAndGlyphs" textLength="106" x="652.85" y="119.4716">view feedbacks</text><ellipse cx="706.0794" cy="181.969" fill="#FEFECE" filter="url(#f16)" rx="65.5794" ry="15.5159" style="stroke: #A80036; stroke-width: 1.5;"/><text fill="#000000" font-family="sans-serif" font-size="14" lengthAdjust="spacingAndGlyphs" textLength="95" x="658.5794" y="186.6174">put to wishlist</text><ellipse cx="449.1565" cy="330.0844" fill="#FEFECE" filter="url(#f16)" rx="61.1565" ry="14.6313" style="stroke: #A80036; stroke-width: 1.5;"/><text fill="#000000" font-family="sans-serif" font-size="14" lengthAdjust="spacingAndGlyphs" textLength="83" x="407.6565" y="334.7329">buy product</text><ellipse cx="705.9619" cy="338.9768" fill="#FEFECE" filter="url(#f16)" rx="48.9619" ry="14.5236" style="stroke: #A80036; stroke-width: 1.5;"/><text fill="#000000" font-family="sans-serif" font-size="14" lengthAdjust="spacingAndGlyphs" textLength="65" x="673.4619" y="343.6252">checkout</text><ellipse cx="1079.0118" cy="357.8555" fill="#FEFECE" filter="url(#f16)" rx="95.0118" ry="21.4024" style="stroke: #A80036; stroke-width: 1.5;"/><text fill="#000000" font-family="sans-serif" font-size="14" lengthAdjust="spacingAndGlyphs" textLength="165" x="996.5118" y="362.5039">select payment-method</text><ellipse cx="1078.8859" cy="213.9303" fill="#FEFECE" filter="url(#f16)" rx="67.8859" ry="15.9772" style="stroke: #A80036; stroke-width: 1.5;"/><text fill="#000000" font-family="sans-serif" font-size="14" lengthAdjust="spacingAndGlyphs" textLength="101" x="1028.3859" y="218.5787">write feedback</text><ellipse cx="1079.1884" cy="282.7908" fill="#FEFECE" filter="url(#f16)" rx="77.1884" ry="17.8377" style="stroke: #A80036; stroke-width: 1.5;"/><text fill="#000000" font-family="sans-serif" font-size="14" lengthAdjust="spacingAndGlyphs" textLength="124" x="1017.1884" y="287.4393">send confirmation</text><ellipse cx="1079.2042" cy="139.894" fill="#FEFECE" filter="url(#f16)" rx="102.7042" ry="22.9408" style="stroke: #A80036; stroke-width: 1.5;"/><text fill="#000000" font-family="sans-serif" font-size="14" lengthAdjust="spacingAndGlyphs" textLength="182" x="988.2042" y="144.5424">add new payment-method</text><!--entity customer--><ellipse cx="40" cy="262.2432" fill="#FEFECE" filter="url(#f16)" rx="8" ry="8" style="stroke: #A80036; stroke-width: 2.0;"/><path d="M40,270.2432 L40,297.2432 M27,278.2432 L53,278.2432 M40,297.2432 L27,312.2432 M40,297.2432 L53,312.2432 " fill="#FEFECE" filter="url(#f16)" style="stroke: #A80036; stroke-width: 2.0;"/><text fill="#000000" font-family="sans-serif" font-size="14" lengthAdjust="spacingAndGlyphs" textLength="68" x="6" y="332.2383">Customer</text><text fill="#000000" font-family="sans-serif" font-size="14" font-style="italic" lengthAdjust="spacingAndGlyphs" textLength="62" x="9" y="249.2559">«human»</text><!--entity ics--><ellipse cx="706" cy="440.2432" fill="#FEFECE" filter="url(#f16)" rx="8" ry="8" style="stroke: #A80036; stroke-width: 2.0;"/><path d="M706,448.2432 L706,475.2432 M693,456.2432 L719,456.2432 M706,475.2432 L693,490.2432 M706,475.2432 L719,490.2432 " fill="#FEFECE" filter="url(#f16)" style="stroke: #A80036; stroke-width: 2.0;"/><text fill="#000000" font-family="sans-serif" font-size="14" lengthAdjust="spacingAndGlyphs" textLength="172" x="620" y="510.2383">Inventory Control System</text><text fill="#000000" font-family="sans-serif" font-size="14" font-style="italic" lengthAdjust="spacingAndGlyphs" textLength="61" x="675.5" y="427.2559">«system»</text><!--entity psp--><ellipse cx="1079" cy="441.2432" fill="#FEFECE" filter="url(#f16)" rx="8" ry="8" style="stroke: #A80036; stroke-width: 2.0;"/><path d="M1079,449.2432 L1079,476.2432 M1066,457.2432 L1092,457.2432 M1079,476.2432 L1066,491.2432 M1079,476.2432 L1092,491.2432 " fill="#FEFECE" filter="url(#f16)" style="stroke: #A80036; stroke-width: 2.0;"/><text fill="#000000" font-family="sans-serif" font-size="14" lengthAdjust="spacingAndGlyphs" textLength="174" x="992" y="511.2383">Payment Service Provider</text><text fill="#000000" font-family="sans-serif" font-size="14" font-style="italic" lengthAdjust="spacingAndGlyphs" textLength="61" x="1048.5" y="428.2559">«system»</text><!--entity cs--><ellipse cx="1328" cy="259.2432" fill="#FEFECE" filter="url(#f16)" rx="8" ry="8" style="stroke: #A80036; stroke-width: 2.0;"/><path d="M1328,267.2432 L1328,294.2432 M1315,275.2432 L1341,275.2432 M1328,294.2432 L1315,309.2432 M1328,294.2432 L1341,309.2432 " fill="#FEFECE" filter="url(#f16)" style="stroke: #A80036; stroke-width: 2.0;"/><text fill="#000000" font-family="sans-serif" font-size="14" lengthAdjust="spacingAndGlyphs" textLength="163" x="1246.5" y="329.2383">Communication System</text><text fill="#000000" font-family="sans-serif" font-size="14" font-style="italic" lengthAdjust="spacingAndGlyphs" textLength="61" x="1297.5" y="246.2559">«system»</text><path d="M74.1936,273.9551 C100.2209,264.5481 136.617,251.3931 164.727,241.2321 " fill="none" style="stroke: #A80036; stroke-width: 1.0;"/><polygon fill="#A80036" points="169.519,239.5001,159.6952,238.7979,164.8168,241.1999,162.4148,246.3215,169.519,239.5001" style="stroke: #A80036; stroke-width: 1.0;"/><path d="M272.107,219.6161 C309.033,215.9081 355.279,211.2641 391.084,207.6681 " fill="none" style="stroke: #A80036; stroke-width: 1.0;"/><text fill="#000000" font-family="sans-serif" font-size="13" lengthAdjust="spacingAndGlyphs" textLength="44" x="309.5" y="206.02">extend</text><path d="M492.681,212.4981 C539.186,223.9871 613.242,242.2831 660.464,253.9501 " fill="none" style="stroke: #A80036; stroke-width: 1.0;"/><text fill="#000000" font-family="sans-serif" font-size="13" lengthAdjust="spacingAndGlyphs" textLength="44" x="543.5" y="221.02">extend</text><path d="M480.003,189.1381 C497.866,181.6961 521.063,172.3591 542,164.9531 C581.765,150.8861 627.766,136.9871 660.739,127.4281 " fill="none" style="stroke: #A80036; stroke-width: 1.0;"/><text fill="#000000" font-family="sans-serif" font-size="13" lengthAdjust="spacingAndGlyphs" textLength="44" x="543.5" y="146.02">extend</text><path d="M508.822,197.3391 C549.271,194.1671 602.863,189.9641 643.812,186.7521 " fill="none" style="stroke: #A80036; stroke-width: 1.0;"/><text fill="#000000" font-family="sans-serif" font-size="13" lengthAdjust="spacingAndGlyphs" textLength="44" x="543.5" y="186.02">extend</text><path d="M74.3065,289.5541 C142.993,296.9791 301.201,314.0831 388.118,323.4791 " fill="none" style="stroke: #A80036; stroke-width: 1.0;"/><polygon fill="#A80036" points="393.226,324.0311,384.7078,319.0875,388.2549,323.494,383.8484,327.0412,393.226,324.0311" style="stroke: #A80036; stroke-width: 1.0;"/><path d="M490.97,319.5101 C537.711,307.5951 613.828,288.1931 661.571,276.0231 " fill="none" style="stroke: #A80036; stroke-width: 1.0;"/><text fill="#000000" font-family="sans-serif" font-size="13" lengthAdjust="spacingAndGlyphs" textLength="45" x="543" y="290.02">include</text><path d="M489.999,340.5991 C506.039,344.3551 524.773,348.1021 542,349.9531 C582.891,354.3461 629.753,350.2341 662.704,345.8421 " fill="none" style="stroke: #A80036; stroke-width: 1.0;"/><text fill="#000000" font-family="sans-serif" font-size="13" lengthAdjust="spacingAndGlyphs" textLength="45" x="543" y="345.02">include</text><path d="M752.005,343.9321 C773.215,346.1051 798.881,348.4881 822,349.9531 C875.585,353.3501 935.576,355.3221 984.007,356.4581 " fill="none" style="stroke: #A80036; stroke-width: 1.0;"/><text fill="#000000" font-family="sans-serif" font-size="13" lengthAdjust="spacingAndGlyphs" textLength="45" x="861" y="345.02">include</text><path d="M733.905,327.1351 C750.872,319.4001 773.076,308.7561 792,297.9531 C805.917,290.0091 807.345,284.4361 822,277.9531 C887.253,249.0871 967.864,231.6561 1020.99,222.4301 " fill="none" style="stroke: #A80036; stroke-width: 1.0;"/><text fill="#000000" font-family="sans-serif" font-size="13" lengthAdjust="spacingAndGlyphs" textLength="44" x="861.5" y="233.02">extend</text><path d="M776.001,115.9711 C825.478,119.0871 892.553,128.3141 946,153.9531 C962.173,161.7121 960.458,171.9951 976,180.9531 C992.529,190.4791 1012.17,197.6681 1029.79,202.8631 " fill="none" style="stroke: #A80036; stroke-width: 1.0;"/><text fill="#000000" font-family="sans-serif" font-size="13" lengthAdjust="spacingAndGlyphs" textLength="120" x="823.5" y="116.02">assumes checkout</text><path d="M749.921,332.4741 C814.772,322.6851 938.169,304.0601 1013.76,292.6501 " fill="none" style="stroke: #A80036; stroke-width: 1.0;"/><text fill="#000000" font-family="sans-serif" font-size="13" lengthAdjust="spacingAndGlyphs" textLength="45" x="861" y="299.02">include</text><path d="M741.972,329.1141 C759.091,322.7141 778.802,312.7461 792,297.9531 C818.95,267.7471 792.211,239.3641 822,211.9531 C863.883,173.4131 891.197,195.3211 946,179.9531 C969.748,173.2941 995.755,165.5181 1018.36,158.6021 " fill="none" style="stroke: #A80036; stroke-width: 1.0;"/><text fill="#000000" font-family="sans-serif" font-size="13" lengthAdjust="spacingAndGlyphs" textLength="44" x="861.5" y="175.02">extend</text><path d="M1156.12,282.9531 C1184.76,282.9531 1217.39,282.9531 1246.42,282.9531 " fill="none" style="stroke: #A80036; stroke-width: 1.0;"/><path d="M736.688,350.1021 C759.853,358.7271 792.879,370.8611 822,380.9531 C878.351,400.4821 942.072,421.3949 991.844,437.4686 " fill="none" style="stroke: #A80036; stroke-width: 1.0;"/><text fill="#000000" font-family="sans-serif" font-size="13" lengthAdjust="spacingAndGlyphs" textLength="34" x="866.5" y="376.02">verify</text><path d="M474.915,343.0451 C508.25,360.5631 569.051,392.5131 619.781,419.1715 " fill="none" style="stroke: #A80036; stroke-width: 1.0;"/><!--
PlantUML version 2017.11(Wed Apr 19 18:18:59 CEST 2017)
(GPL source distribution)
Java Runtime: Java(TM) SE Runtime Environment
JVM: Java HotSpot(TM) 64-Bit Server VM
Java Version: 1.8.0_131-b11
Operating System: Linux
OS Version: 4.4.0-75-generic
Default Encoding: UTF-8
Language: de
Country: DE
--></g></svg>