<?xml version="1.0" encoding="UTF-8" standalone="no"?><svg xmlns="http://www.w3.org/2000/svg" xmlns:xlink="http://www.w3.org/1999/xlink" contentScriptType="application/ecmascript" contentStyleType="text/css" height="519px" preserveAspectRatio="none" style="width:1498px;height:519px;" version="1.1" viewBox="0 0 1498 519"
    width="1498px" zoomAndPan="magnify"><defs><filter height="300%" id="f16" width="300%" x="-1" y="-1"><feGaussianBlur result="blurOut" stdDeviation="2.0"/><feColorMatrix in="blurOut" result="blurOut2" type="matrix" values="0 0 0 0 0 0 0 0 0 0 0 0 0 0 0 0 0 0 .4 0"/><feOffset dx="4.0" dy="4.0" in="blurOut2" result="blurOut3"/><feBlend in="SourceGraphic" in2="blurOut3" mode="normal"/></filter></defs><g><text fill="#000000" font-family="sans-serif" font-size="18" lengthAdjust="spacingAndGlyphs" textLength="215" x="650" y="17.4023">"Shop - Sub level (Auth)"</text><!--cluster Shop \n Customer-Context--><rect fill="#FFFFFF" filter="url(#f16)" height="294" style="stroke: #000000; stroke-width: 2.0;" width="1108" x="126" y="37.1992"/><text fill="#000000" font-family="sans-serif" font-size="14" font-style="italic" lengthAdjust="spacingAndGlyphs" textLength="109" x="625.5" y="52.7344">«sub level auth»</text><text fill="#000000" font-family="sans-serif" font-size="14" font-weight="bold" lengthAdjust="spacingAndGlyphs" textLength="35" x="660" y="69.2227">Shop</text><text fill="#000000" font-family="sans-serif" font-size="14" font-weight="bold" lengthAdjust="spacingAndGlyphs" textLength="135" x="615" y="85.7109">Customer-Context</text><ellipse cx="174.7487" cy="114.3582" fill="#FEFECE" filter="url(#f16)" rx="27.7487" ry="14.659" style="stroke: #A80036; stroke-width: 1.5;"/><text fill="#000000" font-family="sans-serif" font-size="14" lengthAdjust="spacingAndGlyphs" textLength="35" x="157.2487" y="119.1023">login</text><ellipse cx="473.3614" cy="114.3582" fill="#FEFECE" filter="url(#f16)" rx="58.8614" ry="14.659" style="stroke: #A80036; stroke-width: 1.5;"/><text fill="#000000" font-family="sans-serif" font-size="14" lengthAdjust="spacingAndGlyphs" textLength="79" x="433.8614" y="119.1023">view profile</text><ellipse cx="801.3562" cy="113.9705" fill="#FEFECE" filter="url(#f16)" rx="69.3562" ry="16.2712" style="stroke: #A80036; stroke-width: 1.5;"/><text fill="#000000" font-family="sans-serif" font-size="14" lengthAdjust="spacingAndGlyphs" textLength="104" x="749.3562" y="118.7146">manage profile</text><ellipse cx="1135.3954" cy="123.9783" fill="#FEFECE" filter="url(#f16)" rx="64.3954" ry="15.2791" style="stroke: #A80036; stroke-width: 1.5;"/><text fill="#000000" font-family="sans-serif" font-size="14" lengthAdjust="spacingAndGlyphs" textLength="91" x="1089.8954" y="128.7224">delete profile</text><ellipse cx="1135.6506" cy="196.4293" fill="#FEFECE" filter="url(#f16)" rx="66.6506" ry="15.7301" style="stroke: #A80036; stroke-width: 1.5;"/><text fill="#000000" font-family="sans-serif" font-size="14" lengthAdjust="spacingAndGlyphs" textLength="97" x="1087.1506" y="201.1735">update profile</text><ellipse cx="1135.3393" cy="295.1671" fill="#FEFECE" filter="url(#f16)" rx="90.3393" ry="20.4679" style="stroke: #A80036; stroke-width: 1.5;"/><text fill="#000000" font-family="sans-serif" font-size="14" lengthAdjust="spacingAndGlyphs" textLength="154" x="1058.3393" y="299.9112">unsubscribe newsleter</text><ellipse cx="174.3198" cy="178.3582" fill="#FEFECE" filter="url(#f16)" rx="34.8198" ry="14.659" style="stroke: #A80036; stroke-width: 1.5;"/><text fill="#000000" font-family="sans-serif" font-size="14" lengthAdjust="spacingAndGlyphs" textLength="45" x="151.8198" y="183.1023">logout</text><ellipse cx="174.4767" cy="242.3582" fill="#FEFECE" filter="url(#f16)" rx="40.4767" ry="14.659" style="stroke: #A80036; stroke-width: 1.5;"/><text fill="#000000" font-family="sans-serif" font-size="14" lengthAdjust="spacingAndGlyphs" textLength="53" x="147.9767" y="247.1023">register</text><ellipse cx="473.2669" cy="233.0526" fill="#FEFECE" filter="url(#f16)" rx="64.7669" ry="15.3534" style="stroke: #A80036; stroke-width: 1.5;"/><text fill="#000000" font-family="sans-serif" font-size="14" lengthAdjust="spacingAndGlyphs" textLength="92" x="427.2669" y="237.7967">double opt in</text><ellipse cx="473.6664" cy="303.0325" fill="#FEFECE" filter="url(#f16)" rx="84.6664" ry="19.3333" style="stroke: #A80036; stroke-width: 1.5;"/><text fill="#000000" font-family="sans-serif" font-size="14" lengthAdjust="spacingAndGlyphs" textLength="141" x="403.1664" y="307.7766">subscribe newsletter</text><!--entity customer--><ellipse cx="39.5" cy="154.6875" fill="#FEFECE" filter="url(#f16)" rx="8" ry="8" style="stroke: #A80036; stroke-width: 2.0;"/><path d="M39.5,162.6875 L39.5,189.6875 M26.5,170.6875 L52.5,170.6875 M39.5,189.6875 L26.5,204.6875 M39.5,189.6875 L52.5,204.6875 " fill="#FEFECE" filter="url(#f16)" style="stroke: #A80036; stroke-width: 2.0;"/><text fill="#000000" font-family="sans-serif" font-size="14" lengthAdjust="spacingAndGlyphs" textLength="67" x="6" y="225.2227">Customer</text><text fill="#000000" font-family="sans-serif" font-size="14" font-style="italic" lengthAdjust="spacingAndGlyphs" textLength="62" x="8.5" y="141.7344">«human»</text><!--entity ams--><ellipse cx="1392" cy="146.6875" fill="#FEFECE" filter="url(#f16)" rx="8" ry="8" style="stroke: #A80036; stroke-width: 2.0;"/><path d="M1392,154.6875 L1392,181.6875 M1379,162.6875 L1405,162.6875 M1392,181.6875 L1379,196.6875 M1392,181.6875 L1405,196.6875 " fill="#FEFECE" filter="url(#f16)" style="stroke: #A80036; stroke-width: 2.0;"/><text fill="#000000" font-family="sans-serif" font-size="14" lengthAdjust="spacingAndGlyphs" textLength="210" x="1287" y="217.2227">Account Mangagement System</text><text fill="#000000" font-family="sans-serif" font-size="14" font-style="italic" lengthAdjust="spacingAndGlyphs" textLength="61" x="1361.5" y="133.7344">«system»</text><!--entity cs--><ellipse cx="1392" cy="423.6875" fill="#FEFECE" filter="url(#f16)" rx="8" ry="8" style="stroke: #A80036; stroke-width: 2.0;"/><path d="M1392,431.6875 L1392,458.6875 M1379,439.6875 L1405,439.6875 M1392,458.6875 L1379,473.6875 M1392,458.6875 L1405,473.6875 " fill="#FEFECE" filter="url(#f16)" style="stroke: #A80036; stroke-width: 2.0;"/><text fill="#000000" font-family="sans-serif" font-size="14" lengthAdjust="spacingAndGlyphs" textLength="161" x="1311.5" y="494.2227">Communication System</text><text fill="#000000" font-family="sans-serif" font-size="14" font-style="italic" lengthAdjust="spacingAndGlyphs" textLength="61" x="1361.5" y="410.7344">«system»</text><path d="M73.218,162.2144 C96.7425,151.062 127.6427,136.413 149.0979,126.2417 " fill="none" style="stroke: #A80036; stroke-width: 1.0;"/><polygon fill="#A80036" points="153.7965,124.0142,143.9506,124.2552,149.2785,126.1561,147.3776,131.484,153.7965,124.0142" style="stroke: #A80036; stroke-width: 1.0;"/><path d="M202.0933,114.1992 C250.0906,114.1992 349.9601,114.1992 414.2486,114.1992 " fill="none" style="stroke: #A80036; stroke-width: 1.0;"/><text fill="#000000" font-family="sans-serif" font-size="13" lengthAdjust="spacingAndGlyphs" textLength="50" x="277" y="110.7676">extends</text><path d="M532.5186,114.1992 C588.4962,114.1992 672.6245,114.1992 731.8601,114.1992 " fill="none" style="stroke: #A80036; stroke-width: 1.0;"/><text fill="#000000" font-family="sans-serif" font-size="13" lengthAdjust="spacingAndGlyphs" textLength="50" x="620" y="110.7676">extends</text><path d="M870.705,116.2712 C929.7473,118.0389 1013.9703,120.5606 1071.475,122.2823 " fill="none" style="stroke: #A80036; stroke-width: 1.0;"/><text fill="#000000" font-family="sans-serif" font-size="13" lengthAdjust="spacingAndGlyphs" textLength="50" x="933" y="114.7676">extends</text><path d="M850.0665,126.1227 C914.2952,141.8914 1026.6781,169.4825 1089.5611,184.9208 " fill="none" style="stroke: #A80036; stroke-width: 1.0;"/><text fill="#000000" font-family="sans-serif" font-size="13" lengthAdjust="spacingAndGlyphs" textLength="50" x="933" y="143.7676">extends</text><path d="M829.4022,129.3198 C890.0776,162.2009 1033.9097,240.1458 1100.5237,276.245 " fill="none" style="stroke: #A80036; stroke-width: 1.0;"/><text fill="#000000" font-family="sans-serif" font-size="13" lengthAdjust="spacingAndGlyphs" textLength="50" x="933" y="182.7676">extends</text><path d="M73.218,178.1992 C91.6356,178.1992 114.5742,178.1992 133.9617,178.1992 " fill="none" style="stroke: #A80036; stroke-width: 1.0;"/><polygon fill="#A80036" points="139.3291,178.1992,130.3291,174.1992,134.3291,178.1992,130.3291,182.1992,139.3291,178.1992" style="stroke: #A80036; stroke-width: 1.0;"/><path d="M73.218,194.184 C95.2903,204.648 123.856,218.1902 145.0207,228.2238 " fill="none" style="stroke: #A80036; stroke-width: 1.0;"/><polygon fill="#A80036" points="149.6898,230.4373,143.2709,222.9676,145.1718,228.2955,139.8439,230.1964,149.6898,230.4373" style="stroke: #A80036; stroke-width: 1.0;"/><path d="M215.1356,240.9761 C264.9534,239.4765 349.9962,236.9167 408.8344,235.1457 " fill="none" style="stroke: #A80036; stroke-width: 1.0;"/><text fill="#000000" font-family="sans-serif" font-size="13" lengthAdjust="spacingAndGlyphs" textLength="46" x="279" y="234.7676">include</text><path d="M209.2289,249.8929 C228.8175,254.1907 253.7533,259.5921 276,264.1992 C320.1491,273.3421 369.9537,283.1736 408.5037,290.6781 " fill="none" style="stroke: #A80036; stroke-width: 1.0;"/><text fill="#000000" font-family="sans-serif" font-size="13" lengthAdjust="spacingAndGlyphs" textLength="50" x="277" y="260.7676">extends</text><path d="M519.5831,244.1878 C533.1696,249.1641 547.2585,256.2419 558,266.1992 C623.4569,326.8771 555.7452,447.1992 645,447.1992 C645,447.1992 645,447.1992 1135.5,447.1992 C1194.3926,447.1992 1260.8912,447.1992 1311.4201,447.1992 " fill="none" style="stroke: #A80036; stroke-width: 1.0;"/><path d="M478.8524,323.0405 C494.5406,376.2656 545.6864,518.1992 645,518.1992 C645,518.1992 645,518.1992 1135.5,518.1992 C1195.914,518.1992 1261.526,499.6783 1311.2669,481.5553 " fill="none" style="stroke: #A80036; stroke-width: 1.0;"/><path d="M1167.9859,314.4501 C1203.8442,335.6995 1262.9078,370.7001 1311.3862,399.4281 " fill="none" style="stroke: #A80036; stroke-width: 1.0;"/><path d="M516.1527,244.9036 C530.3013,250.032 545.5924,257.0195 558,266.1992 C608.1085,303.2718 582.6684,376.1992 645,376.1992 C645,376.1992 645,376.1992 1135.5,376.1992 C1234.7368,376.1992 1317.4237,281.3056 1360.3127,220.3291 " fill="none" style="stroke: #A80036; stroke-width: 1.0;"/><path d="M851.2789,102.5669 C932.5904,85.5536 1098.4314,59.1958 1234,91.1992 C1259.8184,97.2941 1286.2281,108.2896 1309.8818,120.1782 " fill="none" style="stroke: #A80036; stroke-width: 1.0;"/><path d="M1187.4066,133.508 C1216.0252,138.6404 1252.6181,145.2028 1286.9229,151.355 " fill="none" style="stroke: #A80036; stroke-width: 1.0;"/><path d="M1196.6123,190.0046 C1223.6548,187.2634 1256.2437,183.9601 1286.989,180.8436 " fill="none" style="stroke: #A80036; stroke-width: 1.0;"/><!--
PlantUML version 2017.11(Wed Apr 19 18:18:59 CEST 2017)
(GPL source distribution)
Java Runtime: Java(TM) SE Runtime Environment
JVM: Java HotSpot(TM) 64-Bit Server VM
Java Version: 1.8.0_121-b13
Operating System: Mac OS X
OS Version: 10.11.6
Default Encoding: UTF-8
Language: de
Country: DE
--></g></svg>