<?xml version="1.0" encoding="UTF-8" standalone="no"?><svg xmlns="http://www.w3.org/2000/svg" xmlns:xlink="http://www.w3.org/1999/xlink" contentScriptType="application/ecmascript" contentStyleType="text/css" height="451px" preserveAspectRatio="none" style="width:899px;height:451px;" version="1.1" viewBox="0 0 899 451"
    width="899px" zoomAndPan="magnify"><defs><filter height="300%" id="f16" width="300%" x="-1" y="-1"><feGaussianBlur result="blurOut" stdDeviation="2.0"/><feColorMatrix in="blurOut" result="blurOut2" type="matrix" values="0 0 0 0 0 0 0 0 0 0 0 0 0 0 0 0 0 0 .4 0"/><feOffset dx="4.0" dy="4.0" in="blurOut2" result="blurOut3"/><feBlend in="SourceGraphic" in2="blurOut3" mode="normal"/></filter></defs><g><text fill="#000000" font-family="sans-serif" font-size="18" lengthAdjust="spacingAndGlyphs" textLength="157" x="376.5" y="17.4023">"Shop - High level</text><text fill="#000000" font-family="sans-serif" font-size="18" lengthAdjust="spacingAndGlyphs" textLength="271" x="325.5" y="38.6016">keep it short and simple (kiss)"</text><!--cluster Shop \nCustomer-Context--><rect fill="#FFFFFF" filter="url(#f16)" height="357" style="stroke: #000000; stroke-width: 2.0;" width="154" x="125" y="58.3984"/><text fill="#000000" font-family="sans-serif" font-size="14" font-style="italic" lengthAdjust="spacingAndGlyphs" textLength="80" x="162" y="73.9336">«high level»</text><text fill="#000000" font-family="sans-serif" font-size="14" font-weight="bold" lengthAdjust="spacingAndGlyphs" textLength="35" x="182" y="90.4219">Shop</text><text fill="#000000" font-family="sans-serif" font-size="14" font-weight="bold" lengthAdjust="spacingAndGlyphs" textLength="135" x="134.5" y="106.9102">Customer-Context</text><!--cluster Shop \nAdmin-Context--><rect fill="#FFFFFF" filter="url(#f16)" height="179" style="stroke: #000000; stroke-width: 2.0;" width="191" x="593" y="151.3984"/><text fill="#000000" font-family="sans-serif" font-size="14" font-style="italic" lengthAdjust="spacingAndGlyphs" textLength="80" x="648.5" y="166.9336">«high level»</text><text fill="#000000" font-family="sans-serif" font-size="14" font-weight="bold" lengthAdjust="spacingAndGlyphs" textLength="35" x="668.5" y="183.4219">Shop</text><text fill="#000000" font-family="sans-serif" font-size="14" font-weight="bold" lengthAdjust="spacingAndGlyphs" textLength="112" x="632.5" y="199.9102">Admin-Context</text><ellipse cx="202.2487" cy="197.5574" fill="#FEFECE" filter="url(#f16)" rx="27.7487" ry="14.659" style="stroke: #A80036; stroke-width: 1.5;"/><text fill="#000000" font-family="sans-serif" font-size="14" lengthAdjust="spacingAndGlyphs" textLength="35" x="184.7487" y="202.3016">login</text><ellipse cx="201.8198" cy="133.5574" fill="#FEFECE" filter="url(#f16)" rx="34.8198" ry="14.659" style="stroke: #A80036; stroke-width: 1.5;"/><text fill="#000000" font-family="sans-serif" font-size="14" lengthAdjust="spacingAndGlyphs" textLength="45" x="179.3198" y="138.3016">logout</text><ellipse cx="201.9767" cy="261.5574" fill="#FEFECE" filter="url(#f16)" rx="40.4767" ry="14.659" style="stroke: #A80036; stroke-width: 1.5;"/><text fill="#000000" font-family="sans-serif" font-size="14" lengthAdjust="spacingAndGlyphs" textLength="53" x="175.4767" y="266.3016">register</text><ellipse cx="201.9651" cy="391.5915" fill="#FEFECE" filter="url(#f16)" rx="68.9651" ry="16.193" style="stroke: #A80036; stroke-width: 1.5;"/><text fill="#000000" font-family="sans-serif" font-size="14" lengthAdjust="spacingAndGlyphs" textLength="103" x="150.4651" y="396.3356">search product</text><ellipse cx="201.9927" cy="325.597" fill="#FEFECE" filter="url(#f16)" rx="61.4927" ry="14.6985" style="stroke: #A80036; stroke-width: 1.5;"/><text fill="#000000" font-family="sans-serif" font-size="14" lengthAdjust="spacingAndGlyphs" textLength="83" x="160.4927" y="330.3411">buy product</text><ellipse cx="688.7062" cy="302.3397" fill="#FEFECE" filter="url(#f16)" rx="87.7062" ry="19.9412" style="stroke: #A80036; stroke-width: 1.5;"/><text fill="#000000" font-family="sans-serif" font-size="14" lengthAdjust="spacingAndGlyphs" textLength="148" x="614.7062" y="307.0838">product management</text><ellipse cx="688.4523" cy="229.2889" fill="#FEFECE" filter="url(#f16)" rx="77.4523" ry="17.8905" style="stroke: #A80036; stroke-width: 1.5;"/><text fill="#000000" font-family="sans-serif" font-size="14" lengthAdjust="spacingAndGlyphs" textLength="124" x="626.4523" y="234.033">user management</text><!--entity customer--><ellipse cx="39.5" cy="237.8867" fill="#FEFECE" filter="url(#f16)" rx="8" ry="8" style="stroke: #A80036; stroke-width: 2.0;"/><path d="M39.5,245.8867 L39.5,272.8867 M26.5,253.8867 L52.5,253.8867 M39.5,272.8867 L26.5,287.8867 M39.5,272.8867 L52.5,287.8867 " fill="#FEFECE" filter="url(#f16)" style="stroke: #A80036; stroke-width: 2.0;"/><text fill="#000000" font-family="sans-serif" font-size="14" lengthAdjust="spacingAndGlyphs" textLength="67" x="6" y="308.4219">Customer</text><text fill="#000000" font-family="sans-serif" font-size="14" font-style="italic" lengthAdjust="spacingAndGlyphs" textLength="62" x="8.5" y="224.9336">«human»</text><!--entity admin--><ellipse cx="867" cy="242.8867" fill="#FEFECE" filter="url(#f16)" rx="8" ry="8" style="stroke: #A80036; stroke-width: 2.0;"/><path d="M867,250.8867 L867,277.8867 M854,258.8867 L880,258.8867 M867,277.8867 L854,292.8867 M867,277.8867 L880,292.8867 " fill="#FEFECE" filter="url(#f16)" style="stroke: #A80036; stroke-width: 2.0;"/><text fill="#000000" font-family="sans-serif" font-size="14" lengthAdjust="spacingAndGlyphs" textLength="45" x="844.5" y="313.4219">Admin</text><text fill="#000000" font-family="sans-serif" font-size="14" font-style="italic" lengthAdjust="spacingAndGlyphs" textLength="62" x="836" y="229.9336">«human»</text><!--entity ics--><ellipse cx="436" cy="379.8867" fill="#FEFECE" filter="url(#f16)" rx="8" ry="8" style="stroke: #A80036; stroke-width: 2.0;"/><path d="M436,387.8867 L436,414.8867 M423,395.8867 L449,395.8867 M436,414.8867 L423,429.8867 M436,414.8867 L449,429.8867 " fill="#FEFECE" filter="url(#f16)" style="stroke: #A80036; stroke-width: 2.0;"/><text fill="#000000" font-family="sans-serif" font-size="14" lengthAdjust="spacingAndGlyphs" textLength="172" x="350" y="450.4219">Inventory Control System</text><text fill="#000000" font-family="sans-serif" font-size="14" font-style="italic" lengthAdjust="spacingAndGlyphs" textLength="61" x="405.5" y="366.9336">«system»</text><!--entity cs--><ellipse cx="436" cy="244.8867" fill="#FEFECE" filter="url(#f16)" rx="8" ry="8" style="stroke: #A80036; stroke-width: 2.0;"/><path d="M436,252.8867 L436,279.8867 M423,260.8867 L449,260.8867 M436,279.8867 L423,294.8867 M436,279.8867 L449,294.8867 " fill="#FEFECE" filter="url(#f16)" style="stroke: #A80036; stroke-width: 2.0;"/><text fill="#000000" font-family="sans-serif" font-size="14" lengthAdjust="spacingAndGlyphs" textLength="161" x="355.5" y="315.4219">Communication System</text><text fill="#000000" font-family="sans-serif" font-size="14" font-style="italic" lengthAdjust="spacingAndGlyphs" textLength="61" x="405.5" y="231.9336">«system»</text><!--entity ams--><ellipse cx="436" cy="109.8867" fill="#FEFECE" filter="url(#f16)" rx="8" ry="8" style="stroke: #A80036; stroke-width: 2.0;"/><path d="M436,117.8867 L436,144.8867 M423,125.8867 L449,125.8867 M436,144.8867 L423,159.8867 M436,144.8867 L449,159.8867 " fill="#FEFECE" filter="url(#f16)" style="stroke: #A80036; stroke-width: 2.0;"/><text fill="#000000" font-family="sans-serif" font-size="14" lengthAdjust="spacingAndGlyphs" textLength="210" x="331" y="180.4219">Account Mangagement System</text><text fill="#000000" font-family="sans-serif" font-size="14" font-style="italic" lengthAdjust="spacingAndGlyphs" textLength="61" x="405.5" y="96.9336">«system»</text><path d="M73.1701,248.1376 C103.4006,236.2314 147.1994,218.9814 175.1364,207.9785 " fill="none" style="stroke: #A80036; stroke-width: 1.0;"/><polygon fill="#A80036" points="179.8201,206.1339,169.9804,205.7102,175.1679,207.9662,172.912,213.1537,179.8201,206.1339" style="stroke: #A80036; stroke-width: 1.0;"/><path d="M73.3107,215.2739 C87.7538,197.9326 105.7254,179.1159 125,165.3984 C138.1398,156.047 154.4257,148.7744 168.6309,143.5424 " fill="none" style="stroke: #A80036; stroke-width: 1.0;"/><polygon fill="#A80036" points="173.361,141.8462,163.539,141.1189,168.6544,143.5339,166.2394,148.6494,173.361,141.8462" style="stroke: #A80036; stroke-width: 1.0;"/><path d="M73.1701,261.3984 C97.2244,261.3984 129.8691,261.3984 156.2781,261.3984 " fill="none" style="stroke: #A80036; stroke-width: 1.0;"/><polygon fill="#A80036" points="161.4724,261.3984,152.4724,257.3984,156.4724,261.3984,152.4724,265.3984,161.4724,261.3984" style="stroke: #A80036; stroke-width: 1.0;"/><path d="M73.0585,306.8165 C87.593,324.2612 105.6966,343.3388 125,357.3984 C135.0256,364.7005 146.8673,370.898 158.2188,375.9207 " fill="none" style="stroke: #A80036; stroke-width: 1.0;"/><polygon fill="#A80036" points="163.047,378.0012,156.3647,370.7661,158.4552,376.0225,153.1988,378.113,163.047,378.0012" style="stroke: #A80036; stroke-width: 1.0;"/><path d="M73.1701,274.6592 C100.1491,285.2848 137.9346,300.1665 165.608,311.0656 " fill="none" style="stroke: #A80036; stroke-width: 1.0;"/><polygon fill="#A80036" points="170.3053,312.9155,163.3974,305.8955,165.6532,311.0831,160.4655,313.3389,170.3053,312.9155" style="stroke: #A80036; stroke-width: 1.0;"/><path d="M226.5998,190.6702 C251.5935,183.8344 292.0323,172.7742 330.7398,162.1875 " fill="none" style="stroke: #A80036; stroke-width: 1.0;"/><path d="M237.0322,133.3984 C262.0852,133.3984 297.2149,133.3984 330.9964,133.3984 " fill="none" style="stroke: #A80036; stroke-width: 1.0;"/><path d="M230.271,250.866 C245.0392,245.0615 263.2644,237.418 279,229.3984 C294.7269,221.3832 326.1284,202.4012 356.7426,183.4133 " fill="none" style="stroke: #A80036; stroke-width: 1.0;"/><path d="M242.4925,262.6097 C273.4941,263.5371 317.2574,264.8463 355.3252,265.9851 " fill="none" style="stroke: #A80036; stroke-width: 1.0;"/><path d="M244.9192,314.9437 C275.7934,307.4231 318.3592,297.0545 355.4807,288.0121 " fill="none" style="stroke: #A80036; stroke-width: 1.0;"/><path d="M237.5396,337.2449 C267.3293,347.1748 311.1061,361.7671 349.9702,374.7218 " fill="none" style="stroke: #A80036; stroke-width: 1.0;"/><path d="M269.6825,394.8693 C294.6536,396.1499 323.2932,397.6186 349.6901,398.9723 " fill="none" style="stroke: #A80036; stroke-width: 1.0;"/><path d="M759.1305,288.1536 C785.6579,282.8035 814.4821,276.9903 835.6555,272.72 " fill="none" style="stroke: #A80036; stroke-width: 1.0;"/><polygon fill="#A80036" points="754.2064,289.1467,763.8196,291.2883,759.1077,288.1582,762.2379,283.4463,754.2064,289.1467" style="stroke: #A80036; stroke-width: 1.0;"/><path d="M751.3756,242.4314 C779.9791,248.3605 812.5534,255.1126 835.8216,259.9356 " fill="none" style="stroke: #A80036; stroke-width: 1.0;"/><polygon fill="#A80036" points="746.4538,241.4112,754.4544,247.155,751.3497,242.4262,756.0784,239.3215,746.4538,241.4112" style="stroke: #A80036; stroke-width: 1.0;"/><path d="M541.2543,173.4159 C578.8729,187.7184 619.0503,202.9938 647.9173,213.9689 " fill="none" style="stroke: #A80036; stroke-width: 1.0;"/><path d="M522.19,368.9224 C563.4782,352.4071 611.1435,333.341 644.832,319.8656 " fill="none" style="stroke: #A80036; stroke-width: 1.0;"/><!--
PlantUML version 2017.11(Wed Apr 19 18:18:59 CEST 2017)
(GPL source distribution)
Java Runtime: Java(TM) SE Runtime Environment
JVM: Java HotSpot(TM) 64-Bit Server VM
Java Version: 1.8.0_121-b13
Operating System: Mac OS X
OS Version: 10.11.6
Default Encoding: UTF-8
Language: de
Country: DE
--></g></svg>