<?xml version="1.0" encoding="UTF-8" standalone="no"?><svg xmlns="http://www.w3.org/2000/svg" xmlns:xlink="http://www.w3.org/1999/xlink" contentScriptType="application/ecmascript" contentStyleType="text/css" height="1144px" preserveAspectRatio="none" style="width:923px;height:1144px;" version="1.1" viewBox="0 0 923 1144"
    width="923px" zoomAndPan="magnify"><defs><filter height="300%" id="fr99av5pxwzy7" width="300%" x="-1" y="-1"><feGaussianBlur result="blurOut" stdDeviation="2.0"/><feColorMatrix in="blurOut" result="blurOut2" type="matrix" values="0 0 0 0 0 0 0 0 0 0 0 0 0 0 0 0 0 0 .4 0"/><feOffset dx="4.0" dy="4.0" in="blurOut2" result="blurOut3"/><feBlend in="SourceGraphic" in2="blurOut3" mode="normal"/></filter></defs><g><text fill="#000000" font-family="sans-serif" font-size="18" lengthAdjust="spacingAndGlyphs" textLength="339" x="301.5" y="17.4023">"Resource Area - HPC on demand IaaS"</text><!--cluster RA_BackEnd--><rect fill="#FFFFFF" filter="url(#fr99av5pxwzy7)" height="293" style="stroke: #000000; stroke-width: 2.0;" width="245" x="390" y="844.1992"/><text fill="#000000" font-family="sans-serif" font-size="14" font-style="italic" lengthAdjust="spacingAndGlyphs" textLength="120" x="452.5" y="859.7344">«ClusterBackend»</text><text fill="#000000" font-family="sans-serif" font-size="14" font-weight="bold" lengthAdjust="spacingAndGlyphs" textLength="86" x="469.5" y="876.2227">RA_BackEnd</text><!--cluster RA_FrontEnd--><rect fill="#FFFFFF" filter="url(#fr99av5pxwzy7)" height="799" style="stroke: #000000; stroke-width: 2.0;" width="790" x="126" y="37.1992"/><text fill="#000000" font-family="sans-serif" font-size="14" font-style="italic" lengthAdjust="spacingAndGlyphs" textLength="103" x="469.5" y="52.7344">«Webfrontend»</text><text fill="#000000" font-family="sans-serif" font-size="14" font-weight="bold" lengthAdjust="spacingAndGlyphs" textLength="91" x="475.5" y="69.2227">RA_FrontEnd</text><ellipse cx="512.4007" cy="945.1794" fill="#FEFECE" filter="url(#fr99av5pxwzy7)" rx="102.9007" ry="22.9801" style="stroke: #A80036; stroke-width: 1.5;"/><text fill="#000000" font-family="sans-serif" font-size="14" lengthAdjust="spacingAndGlyphs" textLength="182" x="421.4007" y="949.9235">Provisionierung der Server</text><ellipse cx="512.5984" cy="1023.1189" fill="#FEFECE" filter="url(#fr99av5pxwzy7)" rx="85.0984" ry="19.4197" style="stroke: #A80036; stroke-width: 1.5;"/><text fill="#000000" font-family="sans-serif" font-size="14" lengthAdjust="spacingAndGlyphs" textLength="142" x="441.5984" y="1027.863">Storage bereitstellen</text><ellipse cx="512.4064" cy="1102.9805" fill="#FEFECE" filter="url(#fr99av5pxwzy7)" rx="114.4064" ry="25.2813" style="stroke: #A80036; stroke-width: 1.5;"/><text fill="#000000" font-family="sans-serif" font-size="14" lengthAdjust="spacingAndGlyphs" textLength="207" x="408.9064" y="1107.7246">Software Repository verwalten</text><ellipse cx="235.3701" cy="192.3582" fill="#FEFECE" filter="url(#fr99av5pxwzy7)" rx="29.8701" ry="14.659" style="stroke: #A80036; stroke-width: 1.5;"/><text fill="#000000" font-family="sans-serif" font-size="14" lengthAdjust="spacingAndGlyphs" textLength="38" x="216.3701" y="197.1023">Login</text><ellipse cx="235.6723" cy="263.2337" fill="#FEFECE" filter="url(#fr99av5pxwzy7)" rx="95.6723" ry="21.5345" style="stroke: #A80036; stroke-width: 1.5;"/><text fill="#000000" font-family="sans-serif" font-size="14" lengthAdjust="spacingAndGlyphs" textLength="166" x="152.6723" y="267.9778">Buchung HPC Ressource</text><ellipse cx="798.1482" cy="97.3582" fill="#FEFECE" filter="url(#fr99av5pxwzy7)" rx="37.6482" ry="14.659" style="stroke: #A80036; stroke-width: 1.5;"/><text fill="#000000" font-family="sans-serif" font-size="14" lengthAdjust="spacingAndGlyphs" textLength="49" x="773.6482" y="102.1023">Upload</text><ellipse cx="797.7904" cy="532.3582" fill="#FEFECE" filter="url(#fr99av5pxwzy7)" rx="51.7904" ry="14.659" style="stroke: #A80036; stroke-width: 1.5;"/><text fill="#000000" font-family="sans-serif" font-size="14" lengthAdjust="spacingAndGlyphs" textLength="69" x="763.2904" y="537.1023">Download</text><ellipse cx="797.8163" cy="357.9625" fill="#FEFECE" filter="url(#fr99av5pxwzy7)" rx="109.3163" ry="24.2633" style="stroke: #A80036; stroke-width: 1.5;"/><text fill="#000000" font-family="sans-serif" font-size="14" lengthAdjust="spacingAndGlyphs" textLength="196" x="699.8163" y="362.7066">Lizenz/Software auswaehlen</text><ellipse cx="797.7773" cy="271.0547" fill="#FEFECE" filter="url(#fr99av5pxwzy7)" rx="109.7773" ry="24.3555" style="stroke: #A80036; stroke-width: 1.5;"/><text fill="#000000" font-family="sans-serif" font-size="14" lengthAdjust="spacingAndGlyphs" textLength="197" x="699.2773" y="275.7988">Produkte/Server auswaehlen</text><ellipse cx="798.1075" cy="184.0207" fill="#FEFECE" filter="url(#fr99av5pxwzy7)" rx="92.1075" ry="20.8215" style="stroke: #A80036; stroke-width: 1.5;"/><text fill="#000000" font-family="sans-serif" font-size="14" lengthAdjust="spacingAndGlyphs" textLength="158" x="719.1075" y="188.7649">Select Payment Method</text><ellipse cx="235.375" cy="476.2742" fill="#FEFECE" filter="url(#fr99av5pxwzy7)" rx="83.375" ry="19.075" style="stroke: #A80036; stroke-width: 1.5;"/><text fill="#000000" font-family="sans-serif" font-size="14" lengthAdjust="spacingAndGlyphs" textLength="138" x="166.375" y="481.0184">Monitoring/Alerting</text><ellipse cx="235.2904" cy="334.3582" fill="#FEFECE" filter="url(#fr99av5pxwzy7)" rx="51.7904" ry="14.659" style="stroke: #A80036; stroke-width: 1.5;"/><text fill="#000000" font-family="sans-serif" font-size="14" lengthAdjust="spacingAndGlyphs" textLength="69" x="200.7904" y="339.1023">Abschluss</text><ellipse cx="798.0911" cy="445.0174" fill="#FEFECE" filter="url(#fr99av5pxwzy7)" rx="82.0911" ry="18.8182" style="stroke: #A80036; stroke-width: 1.5;"/><text fill="#000000" font-family="sans-serif" font-size="14" lengthAdjust="spacingAndGlyphs" textLength="135" x="730.5911" y="449.7616">Rechnung einsehen</text><ellipse cx="797.8406" cy="619.3582" fill="#FEFECE" filter="url(#fr99av5pxwzy7)" rx="46.8406" ry="14.659" style="stroke: #A80036; stroke-width: 1.5;"/><text fill="#000000" font-family="sans-serif" font-size="14" lengthAdjust="spacingAndGlyphs" textLength="62" x="766.8406" y="624.1023">Bezahlen</text><ellipse cx="235.375" cy="403.2742" fill="#FEFECE" filter="url(#fr99av5pxwzy7)" rx="83.375" ry="19.075" style="stroke: #A80036; stroke-width: 1.5;"/><text fill="#000000" font-family="sans-serif" font-size="14" lengthAdjust="spacingAndGlyphs" textLength="138" x="166.375" y="408.0184">Queue Management</text><ellipse cx="235.6259" cy="548.4244" fill="#FEFECE" filter="url(#fr99av5pxwzy7)" rx="79.1259" ry="18.2252" style="stroke: #A80036; stroke-width: 1.5;"/><text fill="#000000" font-family="sans-serif" font-size="14" lengthAdjust="spacingAndGlyphs" textLength="128" x="171.6259" y="553.1685">Buchung managen</text><ellipse cx="235.3912" cy="620.1775" fill="#FEFECE" filter="url(#fr99av5pxwzy7)" rx="80.3912" ry="18.4782" style="stroke: #A80036; stroke-width: 1.5;"/><text fill="#000000" font-family="sans-serif" font-size="14" lengthAdjust="spacingAndGlyphs" textLength="131" x="169.8912" y="624.9216">Accounts managen</text><ellipse cx="797.8837" cy="706.176" fill="#FEFECE" filter="url(#fr99av5pxwzy7)" rx="75.3837" ry="17.4767" style="stroke: #A80036; stroke-width: 1.5;"/><text fill="#000000" font-family="sans-serif" font-size="14" lengthAdjust="spacingAndGlyphs" textLength="119" x="738.3837" y="710.9201">Emails versenden</text><ellipse cx="235.5363" cy="696.4065" fill="#FEFECE" filter="url(#fr99av5pxwzy7)" rx="101.5363" ry="22.7073" style="stroke: #A80036; stroke-width: 1.5;"/><text fill="#000000" font-family="sans-serif" font-size="14" lengthAdjust="spacingAndGlyphs" textLength="179" x="146.0363" y="701.1506">Software/Lizenz managen</text><ellipse cx="235.6664" cy="773.0325" fill="#FEFECE" filter="url(#fr99av5pxwzy7)" rx="84.6664" ry="19.3333" style="stroke: #A80036; stroke-width: 1.5;"/><text fill="#000000" font-family="sans-serif" font-size="14" lengthAdjust="spacingAndGlyphs" textLength="141" x="165.1664" y="777.7766">Invoice Management</text><ellipse cx="798.2062" cy="793.1405" fill="#FEFECE" filter="url(#fr99av5pxwzy7)" rx="87.7062" ry="19.9412" style="stroke: #A80036; stroke-width: 1.5;"/><text fill="#000000" font-family="sans-serif" font-size="14" lengthAdjust="spacingAndGlyphs" textLength="148" x="724.2062" y="797.8846">Rechnung generieren</text><!--entity Customer--><ellipse cx="39.5" cy="310.6875" fill="#FEFECE" filter="url(#fr99av5pxwzy7)" rx="8" ry="8" style="stroke: #A80036; stroke-width: 2.0;"/><path d="M39.5,318.6875 L39.5,345.6875 M26.5,326.6875 L52.5,326.6875 M39.5,345.6875 L26.5,360.6875 M39.5,345.6875 L52.5,360.6875 " fill="#FEFECE" filter="url(#fr99av5pxwzy7)" style="stroke: #A80036; stroke-width: 2.0;"/><text fill="#000000" font-family="sans-serif" font-size="14" lengthAdjust="spacingAndGlyphs" textLength="67" x="6" y="381.2227">Customer</text><text fill="#000000" font-family="sans-serif" font-size="14" font-style="italic" lengthAdjust="spacingAndGlyphs" textLength="63" x="8" y="297.7344">«Human»</text><!--entity Admin_fe--><ellipse cx="39.5" cy="561.6875" fill="#FEFECE" filter="url(#fr99av5pxwzy7)" rx="8" ry="8" style="stroke: #A80036; stroke-width: 2.0;"/><path d="M39.5,569.6875 L39.5,596.6875 M26.5,577.6875 L52.5,577.6875 M39.5,596.6875 L26.5,611.6875 M39.5,596.6875 L52.5,611.6875 " fill="#FEFECE" filter="url(#fr99av5pxwzy7)" style="stroke: #A80036; stroke-width: 2.0;"/><text fill="#000000" font-family="sans-serif" font-size="14" lengthAdjust="spacingAndGlyphs" textLength="65" x="7" y="632.2227">Admin_fe</text><text fill="#000000" font-family="sans-serif" font-size="14" font-style="italic" lengthAdjust="spacingAndGlyphs" textLength="63" x="8" y="548.7344">«Human»</text><!--entity Admin_be--><ellipse cx="798" cy="999.6875" fill="#FEFECE" filter="url(#fr99av5pxwzy7)" rx="8" ry="8" style="stroke: #A80036; stroke-width: 2.0;"/><path d="M798,1007.6875 L798,1034.6875 M785,1015.6875 L811,1015.6875 M798,1034.6875 L785,1049.6875 M798,1034.6875 L811,1049.6875 " fill="#FEFECE" filter="url(#fr99av5pxwzy7)" style="stroke: #A80036; stroke-width: 2.0;"/><text fill="#000000" font-family="sans-serif" font-size="14" lengthAdjust="spacingAndGlyphs" textLength="51" x="772.5" y="1070.2227">Ansible</text><text fill="#000000" font-family="sans-serif" font-size="14" font-style="italic" lengthAdjust="spacingAndGlyphs" textLength="92" x="752" y="986.7344">«Application»</text><path d="M577.9995,963.094 C631.1742,977.6216 704.814,997.7403 751.935,1010.614 " fill="none" style="stroke: #A80036; stroke-width: 1.0;"/><path d="M597.7727,1023.1992 C648.2162,1023.1992 710.1549,1023.1992 751.6675,1023.1992 " fill="none" style="stroke: #A80036; stroke-width: 1.0;"/><path d="M583.8072,1083.2182 C636.3289,1068.5011 706.2352,1048.9126 751.6706,1036.1812 " fill="none" style="stroke: #A80036; stroke-width: 1.0;"/><path d="M69.0269,283.9661 C83.7363,262.8064 103.2553,239.5725 126,224.1992 C150.1211,207.8956 182.6457,199.7644 205.9696,195.7958 " fill="none" style="stroke: #A80036; stroke-width: 1.0;"/><path d="M73.2922,319.9148 C82.8501,315.997 93.2931,311.8309 103,308.1992 C128.3702,298.7073 156.776,288.9472 180.7603,280.9531 " fill="none" style="stroke: #A80036; stroke-width: 1.0;"/><path d="M290.3594,245.5924 C305.8808,239.6942 322.4891,232.4784 337,224.1992 C363.105,209.305 362.779,194.9399 390,182.1992 C517.4587,122.5427 686.7554,104.4704 760.7412,99.2301 " fill="none" style="stroke: #A80036; stroke-width: 1.0;"/><text fill="#000000" font-family="sans-serif" font-size="13" lengthAdjust="spacingAndGlyphs" textLength="46" x="489.5" y="110.7676">include</text><path d="M305.3696,277.8715 C331.8327,283.2567 362.261,289.243 390,294.1992 C498.1665,313.5255 623.0404,332.6482 705.8557,344.8853 " fill="none" style="stroke: #A80036; stroke-width: 1.0;"/><text fill="#000000" font-family="sans-serif" font-size="13" lengthAdjust="spacingAndGlyphs" textLength="46" x="489.5" y="290.7676">include</text><path d="M330.9205,264.5563 C429.8123,265.9628 584.1852,268.1583 688.1123,269.6364 " fill="none" style="stroke: #A80036; stroke-width: 1.0;"/><text fill="#000000" font-family="sans-serif" font-size="13" lengthAdjust="spacingAndGlyphs" textLength="46" x="489.5" y="262.7676">include</text><path d="M316.4806,251.627 C340.1745,248.2522 366.1231,244.567 390,241.1992 C504.5517,225.0417 637.228,206.5466 719.3945,195.1182 " fill="none" style="stroke: #A80036; stroke-width: 1.0;"/><text fill="#000000" font-family="sans-serif" font-size="13" lengthAdjust="spacingAndGlyphs" textLength="46" x="489.5" y="203.7676">include</text><path d="M71.75,384.3826 C86.3261,403.7664 105.0021,424.717 126,439.1992 C140.9493,449.5097 159.0135,457.1544 176.1221,462.7295 " fill="none" style="stroke: #A80036; stroke-width: 1.0;"/><path d="M73.1936,334.1992 C103.5117,334.1992 148.5314,334.1992 183.4711,334.1992 " fill="none" style="stroke: #A80036; stroke-width: 1.0;"/><path d="M279.9918,341.8213 C298.8281,346.6 320.2429,354.2153 337,366.1992 C369.3203,389.3133 356.7925,416.3789 390,438.1992 C501.7765,511.6462 663.6477,528.0737 745.8586,531.5044 " fill="none" style="stroke: #A80036; stroke-width: 1.0;"/><text fill="#000000" font-family="sans-serif" font-size="13" lengthAdjust="spacingAndGlyphs" textLength="46" x="489.5" y="434.7676">include</text><path d="M278.2406,342.6333 C376.6914,362.061 619.8307,410.0404 735.2471,432.816 " fill="none" style="stroke: #A80036; stroke-width: 1.0;"/><text fill="#000000" font-family="sans-serif" font-size="13" lengthAdjust="spacingAndGlyphs" textLength="46" x="489.5" y="361.7676">include</text><path d="M284.0352,339.6366 C302.7766,344.0344 323.025,351.9553 337,366.1992 C395.4053,425.7281 327.8971,490.5387 390,546.1992 C493.4202,638.8908 672.799,633.3122 754.8236,624.9529 " fill="none" style="stroke: #A80036; stroke-width: 1.0;"/><text fill="#000000" font-family="sans-serif" font-size="13" lengthAdjust="spacingAndGlyphs" textLength="46" x="489.5" y="542.7676">include</text><path d="M73.1038,346.8836 C89.0879,352.8522 108.4899,360.0034 126,366.1992 C146.2412,373.3614 168.6915,381.0002 187.968,387.4661 " fill="none" style="stroke: #A80036; stroke-width: 1.0;"/><path d="M58.4244,534.8763 C72.6337,503.3481 94.9929,464.109 126,439.1992 C139.2606,428.5462 155.7872,420.9986 171.9489,415.6687 " fill="none" style="stroke: #A80036; stroke-width: 1.0;"/><path d="M72.306,579.0062 C100.0952,573.7603 140.6842,566.0981 174.43,559.7277 " fill="none" style="stroke: #A80036; stroke-width: 1.0;"/><path d="M72.306,591.0574 C99.3324,595.8836 138.4654,602.8716 171.6358,608.7949 " fill="none" style="stroke: #A80036; stroke-width: 1.0;"/><path d="M299.6609,488.4089 C313.5389,493.7085 327.0238,501.3066 337,512.1992 C389.5943,569.6243 326.0225,634.8068 390,679.1992 C497.3146,753.6622 661.1379,735.0329 744.7998,718.6637 " fill="none" style="stroke: #A80036; stroke-width: 1.0;"/><text fill="#000000" font-family="sans-serif" font-size="13" lengthAdjust="spacingAndGlyphs" textLength="46" x="489.5" y="675.7676">include</text><path d="M72.17,552.4469 C87.4875,538.5176 106.6131,523.0256 126,512.1992 C142.3361,503.0765 161.346,495.8154 178.8975,490.273 " fill="none" style="stroke: #A80036; stroke-width: 1.0;"/><path d="M72.0635,616.364 C87.5087,629.9372 106.7657,645.2178 126,656.1992 C141.1156,664.8291 158.4329,672.175 174.7668,678.1256 " fill="none" style="stroke: #A80036; stroke-width: 1.0;"/><path d="M57.3191,635.3487 C71.3415,668.2105 93.9143,709.8137 126,736.1992 C139.174,747.0328 155.6715,754.7512 171.833,760.2289 " fill="none" style="stroke: #A80036; stroke-width: 1.0;"/><path d="M319.1045,776.1718 C424.3841,779.9151 604.3753,786.3148 711.1595,790.1115 " fill="none" style="stroke: #A80036; stroke-width: 1.0;"/><text fill="#000000" font-family="sans-serif" font-size="13" lengthAdjust="spacingAndGlyphs" textLength="46" x="489.5" y="774.7676">include</text><path d="M273.3257,836.256 C276.268,836.8827 279.3421,837.5374 282.5334,838.2172 C308.0635,843.655 341.0931,850.6902 374.1141,857.7235 C378.2417,858.6027 382.3692,859.4819 386.4819,860.3578 C387.5101,860.5768 388.5373,860.7956 389.5634,861.0142 " fill="none" style="stroke: #A80036; stroke-width: 1.0;"/><!--
@startuml
title "Resource Area - HPC on demand IaaS"

left to right direction

actor Customer <<Human>>
actor Admin_fe <<Human>>
actor Ansible as Admin_be <<Application>>

rectangle RA_BackEnd << ClusterBackend >>{
  usecase "Provisionierung der Server" as uc1ba
  usecase "Storage bereitstellen" as uc2ba
  usecase "Software Repository verwalten" as uc3ba
  (uc1ba) - - Admin_be
  (uc2ba) - - Admin_be
  (uc3ba) - - Admin_be

}


rectangle RA_FrontEnd << Webfrontend >>{
  usecase "Login" as fe_uc1
  Customer - - (fe_uc1)
   /'Admin_fe - - (fe_uc1)'/

  usecase "Buchung HPC Ressource" as fe_uc2
  Customer - - (fe_uc2)
  usecase "Upload" as fe_uc5
  usecase "Download" as fe_uc6
  usecase "Lizenz/Software auswaehlen" as fe_uc9
  usecase "Produkte/Server auswaehlen" as fe_uc4
  fe_uc2 - - (fe_uc5) :include
  fe_uc2 - - (fe_uc9) :include
  fe_uc2 - - (fe_uc4) :include
  fe_uc2 - - (fe_uc12) :include
  Customer - - (fe_uc8)

  usecase "Abschluss" as fe_uc13
  usecase "Rechnung einsehen" as fe_uc11a
  usecase "Bezahlen" as fe_uc11c
  Customer - - (fe_uc13)
  fe_uc13 - - (fe_uc6) :include
  fe_uc13 - - fe_uc11a :include
  fe_uc13 - - fe_uc11c :include


  usecase "Queue Management" as fe_uc20
  Customer - - fe_uc20
  Admin_fe - - fe_uc20
  usecase "Buchung managen" as fe_uc3
  Admin_fe - - (fe_uc3)
  usecase "Accounts managen" as fe_uc7
  Admin_fe - - (fe_uc7)
   /'Admin_fe - - (fe_uc4)'/

  usecase "Monitoring/Alerting" as fe_uc8
  usecase "Emails versenden" as fe_uc8a
  fe_uc8 - - fe_uc8a :include
   /'Customer - - fe_uc8'/
  Admin_fe - - fe_uc8
  usecase "Software/Lizenz managen" as fe_uc10
  Admin_fe - - fe_uc10
   /'fe_uc10 - - fe_uc9
  fe_uc2 - - fe_uc3'/
   /'fe_uc10 - - fe_uc9'/
  usecase "Invoice Management" as fe_uc11
  Admin_fe - - fe_uc11

  usecase "Rechnung generieren" as fe_uc11b

  fe_uc11 - - fe_uc11b :include
  usecase "Select Payment Method" as fe_uc12

}

RA_FrontEnd - - RA_BackEnd


 /'package'/

@enduml

PlantUML version 2017.11(Wed Apr 19 18:18:59 CEST 2017)
(GPL source distribution)
Java Runtime: Java(TM) SE Runtime Environment
JVM: Java HotSpot(TM) 64-Bit Server VM
Java Version: 1.8.0_121-b13
Operating System: Mac OS X
OS Version: 10.11.6
Default Encoding: UTF-8
Language: de
Country: DE
--></g></svg>